# xmcd CD database file
#
# Track frame offsets:
#	150
#	19172
#	37477
#	56632
#	72250
#	91215
#	112260
#	131257
#	150887
#	173655
#
# Disc length: 2543 seconds
#
# Revision: 0
# Processed by: cddbd v1.5PL3 Copyright (c) Steve Scherf et al.
# Submitted via: CDex 1.50beta9
#
DISCID=8109ed0a
DTITLE=井上麻美 - 世界中のステキ信じてる
DYEAR=1900
DGENRE=Pop
TTITLE0=クロッカス咲いた
TTITLE1=みんながあの娘を悪く言う
TTITLE2=君が痛みと呼ぶもの
TTITLE3=４月にうとうと
TTITLE4=青春はちっぽけな僕たち
TTITLE5=世界中のステキ
TTITLE6=明日のオーロラ
TTITLE7=サヨナラは君の空に
TTITLE8=君に頬杖をつく前に
TTITLE9=飛べない鳥になりたくない
EXTD=
EXTT0=
EXTT1=
EXTT2=
EXTT3=
EXTT4=
EXTT5=
EXTT6=
EXTT7=
EXTT8=
EXTT9=
PLAYORDER=
